HIERARCHY
ROOT Hips
{
    OFFSET   0.000000   0.000000   0.000000
    CHANNELS 6 Xposition Yposition Zposition Zrotation Xrotation Yrotation
    JOINT Chest
    {
        OFFSET   0.000000   8.007230   0.000000
        CHANNELS 3 Zrotation Xrotation Yrotation
        JOINT Chest2
        {
            OFFSET   0.000000  22.077100   0.000000
            CHANNELS 3 Zrotation Xrotation Yrotation
            JOINT Neck
            {
                OFFSET   0.000000  23.254800  -0.000021
                CHANNELS 3 Zrotation Xrotation Yrotation
                JOINT Head
                {
                    OFFSET   0.000000  14.370000   1.956610
                    CHANNELS 3 Zrotation Xrotation Yrotation
                    End Site
                    {
                        OFFSET   0.000000  19.566000   0.000000
                    }
                }
            }
            JOINT LeftCollar
            {
                OFFSET   3.911900  19.017000  -0.467063
                CHANNELS 3 Zrotation Xrotation Yrotation
                JOINT LeftShoulder
                {
                    OFFSET  10.383700   0.000000   0.000000
                    CHANNELS 3 Zrotation Xrotation Yrotation
                    JOINT LeftElbow
                    {
                        OFFSET  26.662100   0.001529   0.000325
                        CHANNELS 3 Zrotation Xrotation Yrotation
                        JOINT LeftWrist
                        {
                            OFFSET  28.869000  -0.000011  -0.000096
                            CHANNELS 3 Zrotation Xrotation Yrotation
                            JOINT LeftFinger0
                            {
                                OFFSET   2.044650  -2.323460   3.252850
                                CHANNELS 3 Zrotation Xrotation Yrotation
                                JOINT LeftFinger01
                                {
                                    OFFSET   3.088130   0.000000   0.000000
                                    CHANNELS 3 Zrotation Xrotation Yrotation
                                    JOINT LeftFinger02
                                    {
                                        OFFSET   2.639460   0.000000   0.000000
                                        CHANNELS 3 Zrotation Xrotation Yrotation
                                        End Site
                                        {
                                            OFFSET   2.582190   0.000000   0.000000
                                        }
                                    }
                                }
                            }
                            JOINT LeftFinger1
                            {
                                OFFSET   8.364480   0.000000   3.252850
                                CHANNELS 3 Zrotation Xrotation Yrotation
                                JOINT LeftFinger11
                                {
                                    OFFSET   4.646930   0.000000   0.000000
                                    CHANNELS 3 Zrotation Xrotation Yrotation
                                    JOINT LeftFinger12
                                    {
                                        OFFSET   2.323460   0.000000   0.000000
                                        CHANNELS 3 Zrotation Xrotation Yrotation
                                        End Site
                                        {
                                            OFFSET   2.273050   0.000000   0.000000
                                        }
                                    }
                                }
                            }
                            JOINT LeftFinger2
                            {
                                OFFSET   8.364480   0.000016   1.078090
                                CHANNELS 3 Zrotation Xrotation Yrotation
                                JOINT LeftFinger21
                                {
                                    OFFSET   5.111620   0.000000   0.000000
                                    CHANNELS 3 Zrotation Xrotation Yrotation
                                    JOINT LeftFinger22
                                    {
                                        OFFSET   2.788160   0.000017   0.000000
                                        CHANNELS 3 Zrotation Xrotation Yrotation
                                        End Site
                                        {
                                            OFFSET   2.727660   0.000000   0.000000
                                        }
                                    }
                                }
                            }
                            JOINT LeftFinger3
                            {
                                OFFSET   7.899780   0.000015  -1.078090
                                CHANNELS 3 Zrotation Xrotation Yrotation
                                JOINT LeftFinger31
                                {
                                    OFFSET   4.646920   0.000000   0.000000
                                    CHANNELS 3 Zrotation Xrotation Yrotation
                                    JOINT LeftFinger32
                                    {
                                        OFFSET   2.323470   0.000000   0.000000
                                        CHANNELS 3 Zrotation Xrotation Yrotation
                                        End Site
                                        {
                                            OFFSET   2.273050   0.000000   0.000000
                                        }
                                    }
                                }
                            }
                            JOINT LeftFinger4
                            {
                                OFFSET   7.435090   0.000000  -3.252850
                                CHANNELS 3 Zrotation Xrotation Yrotation
                                JOINT LeftFinger41
                                {
                                    OFFSET   3.717550   0.000000   0.000000
                                    CHANNELS 3 Zrotation Xrotation Yrotation
                                    JOINT LeftFinger42
                                    {
                                        OFFSET   1.858760   0.000000   0.000000
                                        CHANNELS 3 Zrotation Xrotation Yrotation
                                        End Site
                                        {
                                            OFFSET   1.818440   0.000000   0.000000
                                        }
                                    }
                                }
                            }
                        }
                    }
                }
            }
            JOINT RightCollar
            {
                OFFSET  -3.911900  19.017000  -0.467062
                CHANNELS 3 Zrotation Xrotation Yrotation
                JOINT RightShoulder
                {
                    OFFSET -10.383700   0.000015   0.000000
                    CHANNELS 3 Zrotation Xrotation Yrotation
                    JOINT RightElbow
                    {
                        OFFSET -26.662100   0.001341   0.000385
                        CHANNELS 3 Zrotation Xrotation Yrotation
                        JOINT RightWrist
                        {
                            OFFSET -28.869000   0.000025  -0.000080
                            CHANNELS 3 Zrotation Xrotation Yrotation
                            JOINT RightFinger0
                            {
                                OFFSET  -2.044650  -2.323490   3.252850
                                CHANNELS 3 Zrotation Xrotation Yrotation
                                JOINT RightFinger01
                                {
                                    OFFSET  -3.088130   0.000000   0.000000
                                    CHANNELS 3 Zrotation Xrotation Yrotation
                                    JOINT RightFinger02
                                    {
                                        OFFSET  -2.639460   0.000000   0.000000
                                        CHANNELS 3 Zrotation Xrotation Yrotation
                                        End Site
                                        {
                                            OFFSET  -2.582190   0.000000   0.000000
                                        }
                                    }
                                }
                            }
                            JOINT RightFinger1
                            {
                                OFFSET  -8.364480   0.000000   3.252850
                                CHANNELS 3 Zrotation Xrotation Yrotation
                                JOINT RightFinger11
                                {
                                    OFFSET  -4.646930   0.000000   0.000000
                                    CHANNELS 3 Zrotation Xrotation Yrotation
                                    JOINT RightFinger12
                                    {
                                        OFFSET  -2.323470   0.000000   0.000000
                                        CHANNELS 3 Zrotation Xrotation Yrotation
                                        End Site
                                        {
                                            OFFSET  -2.273050   0.000000   0.000000
                                        }
                                    }
                                }
                            }
                            JOINT RightFinger2
                            {
                                OFFSET  -8.364480   0.000000   1.078090
                                CHANNELS 3 Zrotation Xrotation Yrotation
                                JOINT RightFinger21
                                {
                                    OFFSET  -5.111610   0.000000   0.000000
                                    CHANNELS 3 Zrotation Xrotation Yrotation
                                    JOINT RightFinger22
                                    {
                                        OFFSET  -2.788160   0.000000   0.000000
                                        CHANNELS 3 Zrotation Xrotation Yrotation
                                        End Site
                                        {
                                            OFFSET  -2.727660   0.000000   0.000000
                                        }
                                    }
                                }
                            }
                            JOINT RightFinger3
                            {
                                OFFSET  -7.899780   0.000000  -1.078090
                                CHANNELS 3 Zrotation Xrotation Yrotation
                                JOINT RightFinger31
                                {
                                    OFFSET  -4.646920   0.000000   0.000000
                                    CHANNELS 3 Zrotation Xrotation Yrotation
                                    JOINT RightFinger32
                                    {
                                        OFFSET  -2.323470   0.000000   0.000000
                                        CHANNELS 3 Zrotation Xrotation Yrotation
                                        End Site
                                        {
                                            OFFSET  -2.273050   0.000000   0.000000
                                        }
                                    }
                                }
                            }
                            JOINT RightFinger4
                            {
                                OFFSET  -7.435090   0.000000  -3.252850
                                CHANNELS 3 Zrotation Xrotation Yrotation
                                JOINT RightFinger41
                                {
                                    OFFSET  -3.717550   0.000000   0.000000
                                    CHANNELS 3 Zrotation Xrotation Yrotation
                                    JOINT RightFinger42
                                    {
                                        OFFSET  -1.858770   0.000000   0.000000
                                        CHANNELS 3 Zrotation Xrotation Yrotation
                                        End Site
                                        {
                                            OFFSET  -1.818440   0.000000   0.000000
                                        }
                                    }
                                }
                            }
                        }
                    }
                }
            }
        }
    }
    JOINT LeftHip
    {
        OFFSET   9.783010   0.000000   0.000000
        CHANNELS 3 Zrotation Xrotation Yrotation
        JOINT LeftKnee
        {
            OFFSET   0.000070 -41.789100   0.000028
            CHANNELS 3 Zrotation Xrotation Yrotation
            JOINT LeftAnkle
            {
                OFFSET   0.000087 -41.133200  -0.000100
                CHANNELS 3 Zrotation Xrotation Yrotation
                JOINT LeftToe
                {
                    OFFSET   0.000000  -6.358960  14.674500
                    CHANNELS 3 Zrotation Xrotation Yrotation
                    End Site
                    {
                        OFFSET   0.000000   0.000000   3.913200
                    }
                }
            }
        }
    }
    JOINT RightHip
    {
        OFFSET  -9.783020   0.000000   0.000000
        CHANNELS 3 Zrotation Xrotation Yrotation
        JOINT RightKnee
        {
            OFFSET   0.000044 -41.789100  -0.000870
            CHANNELS 3 Zrotation Xrotation Yrotation
            JOINT RightAnkle
            {
                OFFSET  -0.000090 -41.133200  -0.000245
                CHANNELS 3 Zrotation Xrotation Yrotation
                JOINT RightToe
                {
                    OFFSET   0.000000  -6.358960  14.674500
                    CHANNELS 3 Zrotation Xrotation Yrotation
                    End Site
                    {
                        OFFSET   0.000000   0.000000   3.913200
                    }
                }
            }
        }
    }
}
MOTION
Frames: 6
Frame Time:   0.016667
  0.286660  89.784300  -1.222410  -4.016150  -5.604830 -19.508400  -3.262450  20.580800   1.397000  -7.963440  41.021200   4.648530   4.869220 -15.451500   1.300170   9.760350 -30.625200   2.114030   1.957340  -9.615750   4.697630 -43.527200  30.381500 -16.095400 -11.234500 -14.640700 -29.314900  13.419400  -3.722020   7.340500  39.707700  29.349500 -70.047000 -20.454100  -0.000599   0.000875  -5.227040  -0.001445  -0.000000 -27.579400   8.660770 -16.082500 -23.567500  -0.000591  -0.002900 -16.497300  -0.000522  -0.003899 -28.639000   3.160310  -5.764650 -42.096200  -0.001203  -0.002082 -28.036100   0.009222  -0.001503 -27.400700   3.034570  -5.831470 -29.470900  -0.002044   0.000578 -19.627700  -0.001410   0.000245 -29.041200   1.401890  -2.523070 -43.608300  -0.003196   0.000105 -29.043100  -0.002434  -0.000517   9.127700  -8.203040  14.865200  43.223100   7.800950  72.135600 -13.032500 -17.931200  95.327000 -55.914100  17.783600  43.973200 -37.255900  45.020200  79.757400  47.368800   0.001680  -0.001853  22.174800   0.002019   0.006605   1.034370   0.049806   2.259430   0.847179  -0.003860   0.000000   0.593031  -0.000068   0.007842  89.000000  -0.001261   0.001633  90.069700   0.004062   0.001856  67.552300   0.002467  -0.002379  86.559700  -4.993670  -0.299477  86.572700   0.005246   0.001777  64.929600   0.002312   0.001116  88.984300  -9.997500  -0.177784 110.000000  -0.006280  -0.003103  80.000000  -0.003628   0.005970   3.167220   5.228280   6.930330  -0.455632   4.801260  20.645200  -6.246480  -4.700390  11.307400  -0.000000   0.000000   0.000000   2.363220  -3.056360 -13.377600  -1.610460  12.547200  -3.782110 -10.564500  -1.397090  15.198800   0.000000   0.000000  -0.000000
  0.222210  89.785100  -1.202970  -4.056680  -5.607600 -19.460900  -3.265190  20.578200   1.383440  -7.968690  41.016700   4.624060   4.867310 -15.419200   1.298300   9.761880 -30.559900   2.206720   1.975060  -9.604300   4.658200 -43.485700  30.363900 -16.194800 -11.149900 -14.666600 -29.346900  13.506600  -3.850380   7.357480  39.717300  29.154700 -69.772600 -20.461600  -0.000648   0.000952  -5.230800  -0.001434   0.000044 -27.649000   8.664820 -16.002800 -23.619000  -0.000685  -0.002807 -16.533400  -0.000487  -0.004068 -28.612900   3.184490  -5.820830 -42.304400   0.005802   0.006646 -28.174800   0.009675   0.005142 -27.428100   3.062900  -5.884660 -29.626700   0.008473   0.007612 -19.731500   0.005107   0.006072 -29.156200   1.383600  -2.478430 -43.779600   0.007084   0.013651 -29.157200  -0.002391   0.010002   9.169940  -8.167150  14.861400  43.225600   7.855010  72.134700 -12.973400 -17.837400  95.460800 -55.968900  17.592900  43.917900 -37.361300  45.045800  79.891100  47.298500   0.001685  -0.001783  22.075200   0.002028   0.006636   1.089220   0.051907   2.295760   0.892099  -0.003875   0.000038   0.624449  -0.000127   0.007834  89.000000  -0.001256   0.001609  90.128900   0.004040   0.001847  67.596600   0.002459  -0.002363  86.365300  -4.993620  -0.316842  86.379000   0.005163   0.001789  64.784300   0.002308   0.001104  88.984300  -9.997400  -0.177796 110.000000  -0.006304  -0.003092  80.000000  -0.003612   0.005952   3.238410   5.305900   6.982200  -0.433379   4.720110  20.703100  -6.305730  -4.621250  11.154700   0.000000   0.000000   0.000000   2.413400  -2.982720 -13.474900  -1.548440  12.487400  -3.783000 -10.635900  -1.407580  15.148400  -0.000000   0.000000  -0.000000
  0.151129  89.786600  -1.187880  -4.077710  -5.614620 -19.344400  -3.278700  20.569200   1.381420  -7.990980  40.998700   4.619340   4.860180 -15.388200   1.292550   9.726400 -30.502500   2.265550   1.986950  -9.598400   4.617500 -43.470400  30.317400 -16.285600 -11.056000 -14.681600 -29.384500  13.640700  -4.061630   7.386440  39.723000  28.974700 -69.524300 -20.480300  -0.000696   0.001033  -5.240160  -0.001423   0.000089 -27.778200   8.670710 -15.970800 -23.724500  -0.000978  -0.002712 -16.607200  -0.000449  -0.004235 -28.586000   3.215300  -5.877050 -42.662800   0.012494   0.015341 -28.413500   0.009929   0.011787 -27.481300   3.101170  -5.937900 -29.920500   0.018991   0.014571 -19.927100   0.011436   0.011126 -29.350700   1.352280  -2.403610 -44.069100   0.017363   0.027196 -29.350000  -0.002341   0.020522   9.206520  -8.133600  14.852600  43.232200   7.928660  72.124500 -12.936600 -17.739900  95.573200 -56.020300  17.419000  43.868400 -37.466800  45.071000  80.025000  47.244700   0.001693  -0.001696  21.999700   0.002034   0.006669   1.181780   0.053699   2.346490   0.967827  -0.003889   0.000096   0.677431  -0.000192   0.007826  89.000000  -0.001255   0.001581  90.213600   0.004020   0.001838  67.660100   0.002451  -0.002349  86.247600  -4.993560  -0.326829  86.261700   0.005082   0.001800  64.696300   0.002304   0.001096  88.984300  -9.997310  -0.177812 110.000000  -0.006323  -0.003083  80.000000  -0.003595   0.005933   3.302410   5.366320   7.013040  -0.409891   4.649700  20.723500  -6.372570  -4.535790  10.984900  -0.000000   0.000000  -0.000000   2.461220  -2.902060 -13.537700  -1.493080  12.415100  -3.794260 -10.706400  -1.409690  15.048300  -0.000000   0.000000   0.000000
  0.072574  89.788300  -1.180990  -4.078750  -5.622540 -19.180800  -3.296860  20.551800   1.388750  -8.031220  40.962400   4.639890   4.832870 -15.356900   1.282130   9.660190 -30.449400   2.308620   1.995540  -9.598470   4.574180 -43.504900  30.200400 -16.349300 -10.979700 -14.682700 -29.435700  13.750100  -4.337500   7.412600  39.714700  28.853900 -69.356400 -20.531300  -0.000754   0.001130  -5.265630  -0.001413   0.000138 -27.965800   8.746950 -16.000300 -23.888500  -0.005745  -0.002615 -16.722000  -0.000411  -0.004401 -28.610000   3.221500  -5.876470 -43.001800   0.012265   0.015077 -28.639200   0.008194   0.011584 -27.543000   3.111530  -5.936180 -30.253000   0.018674   0.013834 -20.148500   0.011260   0.010651 -29.565400   1.317280  -2.321350 -44.388700   0.017078   0.025339 -29.562800  -0.002282   0.019385   9.229490  -8.101460  14.828600  43.236900   8.034350  72.118000 -12.969700 -17.647800  95.633300 -56.077200  17.329500  43.869600 -37.398200  44.964300  79.925200  47.265700   0.001698  -0.001659  22.013800   0.002023   0.006695   1.275910   0.054794   2.367760   1.044870  -0.003898   0.000130   0.731369  -0.000250   0.007833  89.000000  -0.001260   0.001553  90.253400   0.003979   0.001840  67.690000   0.002436  -0.002346  86.201000  -4.993520  -0.330087  86.215400   0.005013   0.001809  64.661600   0.002301   0.001090  88.984300  -9.997210  -0.177841 110.000000  -0.006327  -0.003073  80.000000  -0.003587   0.005914   3.357890   5.390970   7.006650  -0.386008   4.607040  20.719600  -6.448850  -4.454140  10.821400   0.000000   0.000000   0.000000   2.498160  -2.826280 -13.570800  -1.430630  12.344000  -3.872180 -10.775000  -1.403610  14.946100  -0.000000   0.000000   0.000000
 -0.009300  89.790300  -1.179470  -4.063810  -5.638760 -18.955800  -3.320390  20.530800   1.409050  -8.091240  40.917400   4.694170   4.787310 -15.327200   1.268240   9.567570 -30.403200   2.337530   2.002100  -9.598990   4.529510 -43.550700  30.071000 -16.410600 -10.916100 -14.692300 -29.500700  13.824300  -4.612840   7.438390  39.732200  28.783200 -69.256300 -20.583700  -0.000812   0.001226  -5.291810  -0.001403   0.000189 -28.086600   8.819310 -16.029600 -23.998700  -0.010222  -0.002513 -16.799100  -0.000369  -0.004568 -28.666900   3.224160  -5.873600 -43.297300   0.010662   0.013234 -28.836000   0.005011   0.010163 -27.601900   3.114440  -5.932750 -30.574600   0.016457   0.010867 -20.362700   0.010028   0.008493 -29.775500   1.282760  -2.241040 -44.701400   0.015077   0.019332 -29.771100  -0.002215   0.015104   9.246380  -8.075080  14.802400  43.225200   8.143360  72.132500 -12.994800 -17.568300  95.653600 -56.088300  17.278500  43.877400 -37.291000  44.799600  79.769900  47.286800   0.001700  -0.001649  22.027900   0.002011   0.006720   1.335770   0.055401   2.374620   1.093650  -0.003905   0.000160   0.765544  -0.000307   0.007842  89.000000  -0.001264   0.001529  90.273700   0.003937   0.001844  67.705300   0.002420  -0.002342  86.194300  -4.993470  -0.330552  86.208700   0.004940   0.001820  64.656600   0.002296   0.001080  88.984300  -9.997120  -0.177863 110.000000  -0.006330  -0.003061  80.000000  -0.003581   0.005893   3.405000   5.394770   6.996150  -0.359260   4.588850  20.701100  -6.530540  -4.369520  10.645000  -0.000000   0.000000   0.000000   2.522880  -2.751400 -13.599600  -1.366820  12.279600  -3.977900 -10.839500  -1.390180  14.801300   0.000000   0.000000   0.000000
 -0.089123  89.792500  -1.181720  -4.041640  -5.670670 -18.663500  -3.345780  20.510600   1.441720  -8.159970  40.873200   4.775570   4.730510 -15.300000   1.250950   9.448830 -30.365000   2.360120   2.010060  -9.609330   4.483100 -43.572100  29.983200 -16.493700 -10.882700 -14.760800 -29.584500  13.842200  -4.814330   7.461950  39.777600  28.778700 -69.219500 -20.604600  -0.000860   0.001300  -5.302270  -0.001389   0.000242 -28.060100   8.784340 -15.985000 -23.971800  -0.009961  -0.002405 -16.780200  -0.000321  -0.004740 -28.753200   3.232330  -5.867410 -43.435400   0.003203   0.003873 -28.927900   0.001235   0.003096 -27.638300   3.119010  -5.929460 -30.780000   0.005189   0.002682 -20.499500   0.003341   0.002395 -29.925200   1.257760  -2.183950 -44.924300   0.004428   0.004594 -29.919500  -0.002145   0.003662   9.261790  -8.058280  14.782900  43.181900   8.236610  72.174300 -12.982600 -17.506000  95.646100 -56.028700  17.234200  43.860600 -37.202800  44.674900  79.644100  47.284800   0.001695  -0.001718  22.025800   0.002022   0.006752   1.338040   0.055611   2.370630   1.095350  -0.003912   0.000190   0.766744  -0.000365   0.007844  89.000000  -0.001259   0.001519  90.277700   0.003912   0.001845  67.708300   0.002408  -0.002327  86.200400  -4.993420  -0.330126  86.214800   0.004841   0.001836  64.661100   0.002289   0.001055  88.984300  -9.997020  -0.177866 110.000000  -0.006351  -0.003042  80.000000  -0.003572   0.005869   3.445240   5.386580   6.989720  -0.325470   4.588330  20.628500  -6.614360  -4.278820  10.445400  -0.000000   0.000000   0.000000   2.532160  -2.678220 -13.654100  -1.307740  12.236500  -4.043290 -10.893700  -1.373950  14.587400   0.000000   0.000000  -0.000000
